<?xml version="1.0" standalone="no"?>
<svg xmlns:xlink="http://www.w3.org/1999/xlink" id="wave" style="transform:rotate(0deg); transition: 0.3s" viewBox="0 0 1440 140" version="1.1" xmlns="http://www.w3.org/2000/svg"><defs><linearGradient id="sw-gradient-0" x1="0" x2="0" y1="1" y2="0"><stop stop-color="rgba(119.653, 14.394, 202.954, 1)" offset="0%"/><stop stop-color="rgba(178.352, 3.716, 184.74, 1)" offset="100%"/></linearGradient></defs><path style="transform:translate(0, 0px); opacity:1" fill="url(#sw-gradient-0)" d="M0,14L80,32.7C160,51,320,89,480,98C640,107,800,89,960,74.7C1120,61,1280,51,1440,58.3C1600,65,1760,89,1920,100.3C2080,112,2240,112,2400,95.7C2560,79,2720,47,2880,30.3C3040,14,3200,14,3360,30.3C3520,47,3680,79,3840,98C4000,117,4160,121,4320,123.7C4480,126,4640,126,4800,116.7C4960,107,5120,89,5280,84C5440,79,5600,89,5760,86.3C5920,84,6080,70,6240,74.7C6400,79,6560,103,6720,112C6880,121,7040,117,7200,105C7360,93,7520,75,7680,63C7840,51,8000,47,8160,39.7C8320,33,8480,23,8640,18.7C8800,14,8960,14,9120,23.3C9280,33,9440,51,9600,60.7C9760,70,9920,70,10080,58.3C10240,47,10400,23,10560,32.7C10720,42,10880,84,11040,86.3C11200,89,11360,51,11440,32.7L11520,14L11520,140L11440,140C11360,140,11200,140,11040,140C10880,140,10720,140,10560,140C10400,140,10240,140,10080,140C9920,140,9760,140,9600,140C9440,140,9280,140,9120,140C8960,140,8800,140,8640,140C8480,140,8320,140,8160,140C8000,140,7840,140,7680,140C7520,140,7360,140,7200,140C7040,140,6880,140,6720,140C6560,140,6400,140,6240,140C6080,140,5920,140,5760,140C5600,140,5440,140,5280,140C5120,140,4960,140,4800,140C4640,140,4480,140,4320,140C4160,140,4000,140,3840,140C3680,140,3520,140,3360,140C3200,140,3040,140,2880,140C2720,140,2560,140,2400,140C2240,140,2080,140,1920,140C1760,140,1600,140,1440,140C1280,140,1120,140,960,140C800,140,640,140,480,140C320,140,160,140,80,140L0,140Z"/></svg>